<svg viewBox="0 0 64 64" xmlns="http://www.w3.org/2000/svg">
  <path style="fill:#c4e456;" d="M 0 0 L 64 0 L 64 64 L 0 64 L 0 0 Z M 0 0" id="rectangle"/>
  <path id="path" style="fill:#000000;" d="M 13.635 8 L 13.635 9.609 L 34.113 9.609 C 34.367 9.612 34.621 9.621 34.875 9.637 C 35.128 9.652 35.381 9.674 35.633 9.701 C 35.886 9.729 36.138 9.763 36.389 9.803 C 36.64 9.842 36.889 9.886 37.138 9.938 C 37.387 9.99 37.632 10.049 37.878 10.113 C 38.124 10.177 38.37 10.246 38.612 10.322 C 38.854 10.398 39.092 10.479 39.331 10.567 C 39.569 10.655 39.806 10.75 40.04 10.85 C 40.274 10.949 40.505 11.053 40.734 11.163 C 40.963 11.273 41.19 11.388 41.413 11.51 C 41.636 11.631 41.856 11.759 42.073 11.891 C 42.29 12.023 42.502 12.16 42.712 12.302 C 42.922 12.445 43.129 12.592 43.332 12.745 C 43.535 12.897 43.736 13.055 43.931 13.218 C 44.126 13.38 44.315 13.546 44.502 13.718 C 44.689 13.89 44.873 14.066 45.052 14.246 C 45.23 14.427 45.404 14.61 45.574 14.799 C 45.744 14.988 45.908 15.182 46.068 15.38 C 46.229 15.576 46.385 15.777 46.535 15.981 C 46.685 16.186 46.831 16.396 46.971 16.608 C 47.112 16.819 47.247 17.031 47.377 17.25 C 47.506 17.468 47.63 17.692 47.748 17.916 C 47.867 18.141 47.981 18.365 48.089 18.595 C 48.197 18.825 48.3 19.057 48.396 19.292 C 48.493 19.527 48.581 19.766 48.667 20.005 C 48.751 20.244 48.833 20.483 48.906 20.726 C 48.979 20.969 49.044 21.214 49.106 21.46 C 49.167 21.707 49.223 21.954 49.272 22.203 C 49.321 22.453 49.367 22.705 49.404 22.956 C 49.441 23.207 49.471 23.459 49.496 23.711 C 49.52 23.964 49.539 24.216 49.551 24.47 C 49.564 24.723 49.569 24.978 49.569 25.231 C 49.569 25.485 49.564 25.739 49.551 25.993 C 49.539 26.246 49.52 26.499 49.496 26.752 C 49.471 27.004 49.441 27.256 49.404 27.507 C 49.367 27.758 49.321 28.007 49.272 28.256 C 49.223 28.505 49.167 28.753 49.106 29 C 49.044 29.246 48.979 29.49 48.906 29.734 C 48.833 29.977 48.751 30.219 48.667 30.458 C 48.581 30.698 48.493 30.933 48.396 31.168 C 48.3 31.403 48.197 31.635 48.089 31.865 C 47.981 32.095 47.867 32.323 47.748 32.547 C 47.63 32.771 47.506 32.992 47.377 33.21 C 47.247 33.428 47.112 33.643 46.971 33.855 C 46.831 34.066 46.685 34.274 46.535 34.478 C 46.385 34.683 46.229 34.883 46.068 35.08 C 45.908 35.277 45.744 35.472 45.574 35.661 C 45.404 35.85 45.23 36.033 45.052 36.213 C 44.873 36.394 44.689 36.57 44.502 36.742 C 44.315 36.913 44.126 37.083 43.931 37.245 C 43.736 37.408 43.535 37.562 43.332 37.715 C 43.129 37.868 42.922 38.015 42.712 38.157 C 42.502 38.3 42.29 38.44 42.073 38.572 C 41.856 38.704 41.636 38.828 41.413 38.95 C 41.19 39.071 40.963 39.189 40.734 39.3 C 40.505 39.41 40.274 39.514 40.04 39.613 C 39.806 39.712 39.569 39.805 39.331 39.893 C 39.092 39.98 38.854 40.062 38.612 40.138 C 38.37 40.214 38.124 40.283 37.878 40.347 C 37.632 40.411 37.387 40.47 37.138 40.522 C 36.889 40.574 36.64 40.621 36.389 40.66 C 36.138 40.7 35.886 40.734 35.633 40.762 C 35.381 40.789 35.128 40.811 34.875 40.826 C 34.621 40.842 34.367 40.851 34.113 40.854 L 30.646 40.854 L 30.646 21.528 L 12.831 21.528 L 12.831 56 L 30.646 56 L 30.646 42.463 L 34.113 42.463 C 34.393 42.46 34.671 42.449 34.951 42.432 C 35.231 42.416 35.511 42.392 35.79 42.362 C 36.069 42.331 36.345 42.295 36.622 42.251 C 36.899 42.207 37.177 42.158 37.451 42.101 C 37.725 42.043 37.997 41.978 38.268 41.907 C 38.539 41.837 38.808 41.76 39.076 41.677 C 39.343 41.593 39.608 41.503 39.871 41.407 C 40.134 41.31 40.396 41.206 40.654 41.096 C 40.912 40.987 41.167 40.871 41.419 40.749 C 41.671 40.628 41.922 40.503 42.168 40.369 C 42.414 40.235 42.657 40.094 42.896 39.948 C 43.135 39.802 43.37 39.651 43.602 39.493 C 43.834 39.336 44.063 39.174 44.287 39.005 C 44.511 38.837 44.732 38.665 44.948 38.486 C 45.163 38.307 45.374 38.122 45.58 37.933 C 45.787 37.744 45.988 37.549 46.185 37.35 C 46.382 37.151 46.575 36.947 46.763 36.739 C 46.95 36.53 47.133 36.317 47.309 36.1 C 47.486 35.883 47.656 35.662 47.822 35.437 C 47.988 35.211 48.149 34.979 48.304 34.746 C 48.459 34.512 48.606 34.277 48.749 34.036 C 48.893 33.795 49.03 33.55 49.161 33.302 C 49.292 33.055 49.417 32.803 49.536 32.55 C 49.655 32.296 49.77 32.041 49.877 31.782 C 49.983 31.523 50.084 31.263 50.178 30.999 C 50.271 30.735 50.358 30.469 50.439 30.2 C 50.519 29.932 50.592 29.661 50.66 29.39 C 50.727 29.118 50.79 28.845 50.844 28.57 C 50.898 28.295 50.945 28.018 50.985 27.74 C 51.026 27.463 51.062 27.187 51.09 26.908 C 51.117 26.629 51.137 26.35 51.151 26.07 C 51.165 25.79 51.169 25.511 51.169 25.231 C 51.169 24.951 51.165 24.67 51.151 24.39 C 51.137 24.11 51.117 23.833 51.09 23.555 C 51.062 23.276 51.026 22.996 50.985 22.719 C 50.945 22.442 50.898 22.165 50.844 21.89 C 50.79 21.616 50.727 21.345 50.66 21.073 C 50.592 20.801 50.519 20.531 50.439 20.262 C 50.358 19.994 50.271 19.728 50.178 19.464 C 50.084 19.2 49.983 18.937 49.877 18.678 C 49.77 18.419 49.655 18.164 49.536 17.91 C 49.417 17.656 49.292 17.405 49.161 17.158 C 49.03 16.91 48.893 16.668 48.749 16.427 C 48.606 16.186 48.459 15.948 48.304 15.714 C 48.149 15.481 47.988 15.252 47.822 15.026 C 47.656 14.801 47.486 14.58 47.309 14.363 C 47.133 14.146 46.95 13.933 46.763 13.724 C 46.575 13.516 46.382 13.312 46.185 13.113 C 45.988 12.914 45.787 12.719 45.58 12.53 C 45.374 12.34 45.163 12.156 44.948 11.977 C 44.732 11.798 44.511 11.623 44.287 11.455 C 44.063 11.286 43.834 11.124 43.602 10.966 C 43.37 10.809 43.135 10.658 42.896 10.512 C 42.657 10.366 42.414 10.228 42.168 10.094 C 41.922 9.96 41.671 9.832 41.419 9.71 C 41.167 9.589 40.912 9.473 40.654 9.363 C 40.396 9.254 40.134 9.153 39.871 9.056 C 39.608 8.96 39.343 8.87 39.076 8.786 C 38.808 8.702 38.539 8.623 38.268 8.553 C 37.997 8.482 37.725 8.419 37.451 8.362 C 37.177 8.305 36.899 8.256 36.622 8.212 C 36.345 8.168 36.069 8.128 35.79 8.098 C 35.511 8.068 35.231 8.044 34.951 8.027 C 34.671 8.011 34.393 8.003 34.113 8 L 13.635 8 Z M 14.44 23.137 L 29.036 23.137 L 29.036 40.854 L 14.44 40.854 L 14.44 23.137 Z M 14.44 42.463 L 29.036 42.463 L 29.036 54.391 L 14.44 54.391 L 14.44 42.463 Z"/>
</svg>